{"title":"Dead In Tombstone HDRip.flv","uid":8965696,"size":434187256,"categoryP":"video","categoryS":"movies","magnet":"?xt=urn:btih:be9bc19a15a41da4151d87cebeb4c531945676c3&amp;dn=Dead+In+Tombstone+HDRip.flv&amp;tr=udp%3A%2F%2Ftracker.openbittorrent.com%3A80&amp;tr=udp%3A%2F%2Fopen.demonii.com%3A1337&amp;tr=udp%3A%2F%2Ftracker.coppersurfer.tk%3A6969&amp;tr=udp%3A%2F%2Fexodus.desync.com%3A6969","seeders":1,"leechers":0,"uploader":"globeplus","files":1,"time":1380216329,"description":"Dead In Tombstone HDRip.flv\n\nFormat                                   : Flash Video\nFile size                                : 414 MiB\nDuration                                 : 1h 35mn\nOverall bit rate                         : 604 Kbps\nTagging application                      : Yet Another Metadata Injector for FLV - Version 1.9\n\nVideo\n\nFormat                                   : AVC\nFormat/Info                              : Advanced Video Codec\nFormat profile                           : &lt;a class=&quot;__cf_email__&quot; href=&quot;/cdn-cgi/l/email-protection&quot; data-cfemail=&quot;b7ffded0dff7fb849987&quot;&gt;[email&amp;#160;protected]&lt;/a&gt;&lt;script cf-hash='f9e31' type=&quot;text/javascript&quot;&gt;\n/* &lt;![CDATA[ */!function(){try{var t=&quot;currentScript&quot;in document?document.currentScript:function(){for(var t=document.getElementsByTagName(&quot;script&quot;),e=t.length;e--;)if(t[e].getAttribute(&quot;cf-hash&quot;))return t[e]}();if(t&amp;&amp;t.previousSibling){var e,r,n,i,c=t.previousSibling,a=c.getAttribute(&quot;data-cfemail&quot;);if(a){for(e=&quot;&quot;,r=parseInt(a.substr(0,2),16),n=2;a.length-n;n+=2)i=parseInt(a.substr(n,2),16)^r,e+=String.fromCharCode(i);e=document.createTextNode(e),c.parentNode.replaceChild(e,c)}}}catch(u){}}();/* ]]&gt; */&lt;/script&gt;\nFormat settings, CABAC                   : Yes\nFormat settings, ReFrames                : 4 frames\nCodec ID                                 : 7\nDuration                                 : 1h 35mn\nBit rate                                 : 414 Kbps\nWidth                                    : 720 pixels\nHeight                                   : 400 pixels\nDisplay aspect ratio                     : 16:9\nFrame rate mode                          : Constant\nFrame rate                               : 25.000 fps\nColor space                              : YUV\nChroma subsampling                       : 4:2:0\nBit depth                                : 8 bits\nScan type                                : Progressive\nBits/(Pixel*Frame)                       : 0.058\nStream size                              : 292 MiB (71%)\nWriting library                          : x264 core 138\n\n\nAudio\n\nFormat                                   : AAC\nFormat/Info                              : Advanced Audio Codec\nFormat profile                           : LC\nCodec ID                                 : 10\nDuration                                 : 1h 35mn\nBit rate                                 : 168 Kbps\nChannel(s)                               : 2 channels\nChannel positions                        : Front: L R\nSampling rate                            : 44.1 KHz\nCompression mode                         : Lossy\nDelay relative to video                  : 55ms\nStream size                              : 120 MiB (29%)\n\n\nSynopse :\n\nDanny Trejo (Machete), Anthony Michael Hall (The Dark Knight) and Oscar nominee Mickey Rourke (The Wrestler) star in this fiery, action-packed battle for vengeance. As a ruthless gang overruns a small mining town, they murder their own leader, Guerrero Hernandez (Trejo), in a cold-blooded power grab. Sentenced to eternity in hell, Guerrero finds himself confronted by Satan himself (Rourke), offering a daring proposition: deliver the six souls of his former gang and he will escape damnation. With time running out, he sets out on a brutal rampage to avenge his own death.\n\n\n\n* enjoy ...\n","torrent":{"xt":"urn:btih:be9bc19a15a41da4151d87cebeb4c531945676c3","amp;dn":"Dead+In+Tombstone+HDRip.flv","amp;tr":["udp%3A%2F%2Ftracker.openbittorrent.com%3A80","udp%3A%2F%2Fopen.demonii.com%3A1337","udp%3A%2F%2Ftracker.coppersurfer.tk%3A6969","udp%3A%2F%2Fexodus.desync.com%3A6969"],"infoHash":"be9bc19a15a41da4151d87cebeb4c531945676c3","infoHashBuffer":{"type":"Buffer","data":[190,155,193,154,21,164,29,164,21,29,135,206,190,180,197,49,148,86,118,195]},"announce":[],"urlList":[]}}